<?xml version="1.0" encoding="utf-8"?>
<!-- Designed by Vexels.com - 2016 All Rights Reserved - https://vexels.com/terms-and-conditions/  -->

<svg version="1.1" id="Layer_1" xmlns="http://www.w3.org/2000/svg" xmlns:xlink="http://www.w3.org/1999/xlink" x="0px" y="0px"
	 width="1200px" height="1200px" viewBox="0 0 1200 1200" enable-background="new 0 0 1200 1200" xml:space="preserve">
<g>
	<path fill="url(#gradient)" d="M549.714,850.009c0,65.425,53.196,118.472,118.66,118.472c65.539,0,118.507-53.047,118.507-118.472
		c0-65.539-52.968-118.66-118.507-118.66C602.91,731.349,549.714,784.47,549.714,850.009z"/>
	<path fill="url(#gradient)" d="M1120.794,594.827c-4.678-57.568-39.784-106.553-89.15-131.043c-17.94,19.011-43.156,31.084-71.289,31.084
		c-28.21,0-53.431-12.072-71.289-31.084c-49.444,24.49-84.397,73.475-89.229,131.043h121.27
		c24.146,44.805,37.944,95.971,37.944,150.356c0,101.494-47.835,191.523-121.961,249.629c-18.011-17.249-38.172-32.12-60.786-43.349
		c-27.057,28.859-65.233,47.105-107.93,47.105c-42.772,0-80.948-18.246-107.852-47.105c-22.693,11.268-43.156,26.37-61.324,43.769
		c-76.426-57.988-126.176-149.438-126.176-252.847c0-54.193,13.646-105.167,37.638-149.819h298.723
		c-9.196-113.146-78.109-209.345-175.078-257.219c-35.185,37.332-84.628,60.904-139.972,60.904
		c-55.347,0-104.864-23.572-139.972-60.904c-96.968,47.874-165.73,144.073-175.157,257.219h239.318
		c-18.552,46.414-29.129,96.815-29.129,149.819c0,131.121,63.314,246.791,160.44,320.113c-13.262,26.829-21.924,56.226-24.53,87.502
		h486.219c-2.681-31.429-11.342-61.132-24.91-88.04c94.743-73.396,155.992-187.688,155.992-316.777
		c0-53.16-10.503-103.868-29.435-150.356H1120.794z"/>
	<path fill="url(#gradient)" d="M960.355,475.013c43.231,0,78.111-35.107,78.111-78.263c0-43.27-34.88-78.263-78.111-78.263
		c-43.235,0-78.188,34.993-78.188,78.263C882.167,439.906,917.12,475.013,960.355,475.013z"/>
	<path fill="url(#gradient)" d="M394.334,357.271c84.779,0,153.618-68.797,153.618-153.653S479.113,50,394.334,50
		c-84.857,0-153.618,68.761-153.618,153.618S309.478,357.271,394.334,357.271z"/>
</g>
<defs>
	<linearGradient id="gradient" gradientTransform="rotate(45)">
		<stop offset="0%" stop-color="#8A2BE2" />
		<stop offset="100%" stop-color="#9400D3" />
	</linearGradient>
</defs>
</svg>
